<svg width="121" height="46" viewBox="0 0 121 46" fill="none" xmlns="http://www.w3.org/2000/svg">
<path d="M28.0641 2C24.9314 13.5666 21.3668 25.0441 17.7493 36.4661C17.4397 37.4434 16.2899 41.0411 15.908 42.3832C15.7777 42.8412 15.2615 43.5953 15.6935 43.7955C16.4047 44.1251 17.256 43.6654 18.0353 43.5809C23.1842 43.0231 28.3299 42.5705 33.4986 42.2223C60.1446 40.4274 86.8246 38.9119 113.487 37.3778C115.165 37.2813 116.844 37.2147 118.52 37.0917C119.203 37.0416 119.039 37.1285 118.886 36.9755C118.142 36.2318 117.751 34.3523 117.429 33.4807C115.929 29.422 114.348 25.3751 113.139 21.2173C111.855 16.8026 110.966 12.2911 109.474 7.93503C109.139 6.95775 108.611 4.09105 106.971 4.30608C103.778 4.72485 100.55 5.71757 97.4074 6.35295C85.4301 8.77488 73.3607 10.6488 61.1715 11.5997C48.9419 12.5538 36.672 12.4836 24.4262 11.9215C19.7842 11.7084 15.4957 11.4651 10.9025 11.0009C7.79945 10.6872 5.01984 10.0049 2 9.40091" stroke="white" stroke-width="3" stroke-linecap="round"/>
</svg>
