<?xml version="1.0" encoding="UTF-8" standalone="no"?>
<!DOCTYPE svg PUBLIC "-//W3C//DTD SVG 1.1//EN" "http://www.w3.org/Graphics/SVG/1.1/DTD/svg11.dtd">
<svg width="100%" height="100%" viewBox="0 0 1024 1024" version="1.1" xmlns="http://www.w3.org/2000/svg" xmlns:xlink="http://www.w3.org/1999/xlink" xml:space="preserve" xmlns:serif="http://www.serif.com/" style="fill-rule:evenodd;clip-rule:evenodd;stroke-linejoin:round;stroke-miterlimit:2;">
    <g class="z" fill="#982537" transform="matrix(1,0,0,1,128,130)">
        <path d="M189.586,3.724C189.669,3.733 194.625,4.766 200.455,3.702C206.516,6.052 207.86,5.996 207.861,12.501C207.862,12.831 207.864,24.59 210.631,15.553C211.662,12.182 209.154,9.366 212.532,10.395C217.84,12.013 217.933,7.545 223.521,6.976C224.2,6.907 235.101,2.607 238.311,6.635C238.734,7.165 237.145,7.821 241.516,14.485C243.252,17.132 242.91,20.948 244.645,19.702C246.134,18.632 240.958,6.672 245.236,10.783C245.97,11.488 248.193,18.265 250.492,18.187C255.081,18.031 256.996,15.901 257.722,20.462C258.073,22.668 261.169,22.221 261.277,20.465C261.494,16.929 260.733,16.306 264.248,14.065C267.164,12.206 267.019,11.415 271.453,11.797C272.045,11.848 271.954,11.593 278.594,9.748C279.559,9.48 278.496,7.662 289.597,3.775C293.933,2.257 293.939,1.466 298.417,2.77C300.074,3.252 303.978,2.317 308.369,3.814C311.751,4.967 314.834,2.436 314.88,5.502C314.918,8.066 315.401,7.944 317.524,9.455C320.3,11.43 319.264,3.057 323.558,4.151C331.454,6.163 331.068,9.962 333.797,7.953C336.361,6.065 340.843,5.939 341.479,5.921C342.039,7.236 341.81,7.213 342.05,8.602C341.834,10.44 341.737,10.329 341.84,11.463C343.211,26.544 344.331,8.736 344.351,8.422C344.389,7.43 344.426,6.438 344.464,5.446C350.867,3.98 360.456,10.327 360.648,13.482C360.936,18.235 360.586,18.458 361.374,18.725C363.885,19.577 375.066,8.362 376.721,18.462C377.078,20.64 379.746,19.93 380.071,19.218C383.297,12.144 378.632,9.279 383.599,7.776C387.834,6.495 390.243,6.451 388.883,10.631C387.249,15.652 392.194,19.628 392.314,15.477C392.334,14.794 392.533,7.865 394.375,7.194C398.629,5.644 407.167,14.479 406.025,8.471C405.917,7.903 410.136,0.275 417.068,8.861C421.715,14.618 424.1,9.484 422.307,7.656C418.458,3.73 423.935,4.98 426.141,6.907C430.201,10.451 428.986,11.592 433.312,14.795C438.105,18.345 436.104,28.515 439.543,25.556C440.632,24.619 438.407,21.351 438.813,20.961C439.558,20.246 445.047,18.006 447.83,15.92C450.146,14.184 451.476,17.32 455.413,13.412C456.176,12.654 463.42,5.464 467.491,7.514C467.714,7.626 470.605,11.709 472.736,9.741C473.993,8.58 471.322,6.477 473.595,5.974C482.351,4.034 487.592,15.228 489.55,14.798C494.565,13.698 496.715,5.451 506.125,14.875C508.085,16.837 512.275,23.914 515.691,22.78C520.541,21.169 497.878,4.876 510.42,8.76C512.353,9.359 513.846,8.061 519.501,11.498C522.174,13.123 525.819,23.55 525.363,14.498C525.098,9.264 527.225,10.063 536.441,8.153C537.31,7.973 537.246,9.229 547.5,9.034C553.278,8.925 553.549,10.461 558.658,7.823C560.644,6.798 573.231,4.879 577.823,12.319C582.722,20.255 594.005,17.5 595.423,17.153C599.305,16.205 600.922,22.527 601.553,18.52C602.401,13.138 615.355,11.538 616.344,12.655C618.189,14.739 618.594,16.614 620.218,14.315C620.853,13.415 620.99,10.389 628.337,13.824C634.11,16.522 628.3,23.055 632.426,23.815C634.951,24.28 634.316,17.348 636.026,20.817C636.75,22.284 636.7,25.543 638.764,27.082C640.845,28.632 643.856,29.552 641.826,33.652C639.56,38.229 645.176,37.296 645.649,40.481C645.684,40.72 645.877,49.99 645.427,51.473C643.933,56.402 643.716,67.131 643.689,68.5C643.612,72.316 641.269,78.958 644.476,76.462C645.041,76.023 644.281,75.602 648.172,68.321C649.048,66.682 649.651,61.325 652.128,66.696C658.201,79.866 656.199,86.659 657.101,96.485C657.422,99.989 655.094,98.59 654.994,98.269C654.839,97.767 652.374,81.027 646.601,87.589C643.508,91.105 649.871,91.258 648.734,98.521C647.483,106.506 651.445,104.393 652.458,104.606C654.161,104.965 653.293,108.417 654.611,109.417C655.823,110.337 656.53,109.549 657.879,112.254C664.089,120.627 662.369,121.985 675.056,139.845C676.192,141.444 676.671,145.006 676.734,145.472C677.008,147.508 680.339,149.551 680.649,152.482C680.719,153.144 680.681,153.813 680.737,154.476C680.973,157.264 682.026,157.436 680.098,161.293C676.392,168.712 674.139,172.215 658.462,177.039C655.638,177.908 657.443,171.954 657.573,171.527C661.049,160.066 660.169,159.329 659.372,158.663C657.249,156.886 653.693,160.895 652.651,167.519C652.53,168.287 651.156,177.021 651.065,177.102C646.499,181.172 648.982,182.344 647.427,187.473C646.195,191.537 647.122,193.176 641.819,202.658C636.169,212.759 629.31,208.338 627.408,213.457C627.069,214.369 616.865,226.313 614.824,229.68C610.929,236.106 609.345,234.189 600.337,239.176C599.933,239.4 594.893,240.536 594.737,243.525C594.399,250.034 594.068,250.071 590.065,255.14C583.886,262.964 580.633,254.518 580.61,254.445C579.737,251.68 578.067,251.647 577.108,254.342C576.274,256.686 582.411,260.214 577.623,261.851C571.442,263.964 580.394,268.236 576.064,273.141C564.68,286.036 559.841,280.654 553.169,285.08C548.549,288.146 544.517,286.3 546.427,291.527C552.656,308.576 526.229,320.223 527.529,314.505C528.468,310.373 537.59,295.311 533.514,295.582C531.549,295.713 528.134,310.675 525.508,310.439C525.146,310.407 520.535,309.993 521.959,313.288C522.13,313.682 524.538,314.7 524.042,316.334C523.667,317.569 523.378,317.451 518.684,331.541C515.611,340.766 510.59,337.338 505.098,348.292C502.067,354.34 500.072,352.496 489.581,362.583C480.46,371.352 471.078,363.154 467.822,369.658C462.407,380.474 470.628,381.414 468.425,388.472C466.767,393.787 462.514,391.074 461.651,396.52C460.969,400.827 455.223,402.719 452.822,406.679C446.001,417.931 435.917,407.27 431.823,413.684C428.425,419.005 431.962,419.251 432.67,424.48C433.198,428.385 430.523,437.828 427.532,434.479C428.059,426.91 432.763,418.98 427.504,424.504C425.96,426.126 425.288,432.628 425.213,433.356C423.959,437.352 426.131,440.104 422.336,442.18C417.693,444.719 419.242,446.112 416.099,450.083C415.665,450.632 413.172,450.149 412.865,450.774C411.552,453.452 409.3,465.222 395.531,466.986C392.284,467.402 390.558,471.561 390.198,467.575C390.006,465.443 386.722,464.6 385.84,465.787C384.076,468.16 380.567,469.462 383.663,472.335C387.371,475.776 380.865,474.785 380.742,477.536C380.394,485.318 383.664,485.78 379.827,492.679C371.382,507.865 368.877,506.28 359.484,506.369C358.32,506.38 353.414,515.136 350.505,513.491C345.819,510.841 347.505,515.57 345.304,517.197C344.107,518.082 336.331,517.115 336.331,522.5C336.331,527.303 343.345,525.126 340.82,527.633C337.338,531.091 342.837,533.297 339.829,539.654C338.158,543.183 341.8,545.188 343.558,544.769C349.578,543.332 349.377,541.44 355.417,542.77C360.371,543.86 366.945,535.074 367.65,541.481C368.143,545.951 369.434,546.382 373.611,544.755C376.222,543.737 374.468,539.413 377.548,540.129C382.518,541.285 386.932,545.76 387.599,546.435C391.304,547.034 391.004,547.687 393.594,550.405C399.204,556.29 404.05,556.789 403.401,559.476C402.532,563.07 403.938,563.272 407.574,562.943C409.767,562.744 408.541,561.428 413.902,550.707C423.878,530.754 433.722,542.218 441.583,539.77C448.307,537.676 448.405,538.727 455.483,538.978C457.324,539.043 461.795,541.132 464.098,545.708C467.782,553.026 468.882,544.048 481.48,538.454C487.686,535.699 486.563,547.347 490.402,548.761C498.616,551.785 484.749,535.757 491.548,537.125C499.666,538.758 503.192,544.318 503.825,545.315C506.419,549.407 516.119,552.224 519.378,546.412C521.62,542.412 513.917,542.893 516.502,539.503L517.495,539.464C522.493,540.209 522.456,539.975 527.504,539.521C530.921,537.787 531.068,538.726 534.498,540.508C536.508,540.874 536.415,540.939 538.431,540.713C540.04,541.122 539.707,542.013 544.415,542.963C547.333,543.552 547.152,538.923 549.439,539.7C549.803,539.824 553.556,544.474 554.223,545.707C556.471,549.866 556.653,545.692 556.621,545.502C556.465,544.6 556.014,543.75 555.959,542.836C555.946,542.63 564.318,537.031 565.569,536.713C571.492,537.784 571.48,537.241 577.431,536.713C578.733,537.044 578.415,537.579 579.735,538.027C587.357,540.617 582.118,546.185 582.97,548.3C584.588,552.317 585.482,545.816 585.523,545.517C585.727,544.033 584.73,544.372 584.687,544.172C584.679,544.136 585.738,540.673 587.566,542.397C592.166,546.735 594.862,539.164 600.569,537.713C603.091,537.923 603.036,537.854 605.503,537.527C608.006,537.356 607.932,537.352 610.497,537.527C613.006,537.855 612.909,537.917 615.416,537.696C619.906,543.165 621.004,540.884 621.2,540.412C621.762,539.06 617.993,538.795 620.547,536.604L621.506,536.557C625.039,536.852 624.943,536.905 628.431,536.713C633.648,538.041 633.245,539.115 638.579,540.154C648,541.989 647.194,545.428 647.004,546.237C645.768,551.511 650.734,550.518 650.195,548.567C648.706,543.174 650.722,543.384 655.659,540.824C656.65,540.311 660.93,538.091 669.59,540.162C673.554,541.11 673.37,547.24 676.8,544.954C680.986,542.164 680.568,541.218 685.505,540.523C687.808,540.199 687.37,539.273 689.569,538.713C691.583,538.845 693.597,538.977 695.611,539.109C700.343,540.153 702.442,540.007 700.884,544.626C700.118,546.896 704.482,549.798 705.288,543.458C705.712,540.12 710.195,542.864 713.105,550.671C715.399,556.825 715.197,556.932 715.651,557.27C716.157,557.646 718.887,557.192 718.407,559.492C718.215,560.416 716.811,563.133 720.509,561.548C723.034,560.466 723.393,558.902 727.248,561.87C731.418,565.08 731.695,567.832 733.22,565.277C734.817,562.599 735.482,564.323 738.137,565.965C738.296,566.063 742.73,570.467 743.127,570.862C745.487,573.206 742.225,575.313 744.605,578.416C746.897,581.403 745.492,584.099 744.649,591.519C744.384,593.844 740.137,594.936 741.094,597.614C744.082,605.977 738.572,606.296 740.426,612.526C741.237,615.247 740.045,615.381 741.396,621.526C741.648,622.674 739.38,627.13 739.738,628.478C742.414,638.557 754.359,651.309 757.105,658.671C757.207,658.944 769.336,683.426 764.499,681.519C760.153,679.806 746.468,670.19 749.888,677.344C752.047,681.861 765.09,683.988 765.647,688.484C766.04,691.651 759.917,700.585 756.442,699.846C754.47,699.427 753.684,698.319 751.819,701.659C751.314,702.563 746.173,711.77 741.511,709.482C738.959,708.23 729.19,694.819 726.588,697.587C722.764,701.655 744.122,712.025 736.403,714.234C724.04,717.772 714.808,716.647 709.893,729.637C708.531,733.234 712.64,737.832 700.581,740.847C686.497,744.368 682.371,734.261 674.576,735.85C667.198,737.353 667.285,735.2 658.474,734.952C654.659,734.844 654.432,731.675 651.173,734.073C647.541,736.745 647.028,734.76 642.577,735.847C639.672,736.556 635.944,733.152 634.635,735.553C632.487,739.492 626.74,735.458 626.689,735.362C626.062,734.197 625.842,732.845 625.245,731.665C623.677,728.564 622.85,733.763 618.422,732.846C612.282,731.575 612.28,732.281 606.521,734.547C602.878,735.98 602.608,736.785 599.391,734.662C596.267,732.599 590.306,740.932 577.583,737.23C572.725,735.817 567.27,739.874 564.126,733.667C562.837,731.122 560.321,733.804 557.48,732.546C556.125,731.945 545.941,725.979 548.905,730.248C548.994,730.377 552.713,732.644 548.44,733.076C543.152,733.611 539.352,734.637 538.578,734.846C532.368,736.523 521.071,728.137 523.811,733.383C525.133,735.913 528.297,736.902 525.408,737.14C520.63,737.534 514.449,734.622 512.419,735.228C504.167,737.695 500.914,738.931 490.597,735.225C482.691,732.384 480.684,738.656 470.58,736.227C469.152,735.883 466.539,737.664 460.419,735.847C453.529,733.8 453.476,732.983 446.578,734.846C446.47,734.875 424.176,736.856 423.48,736.546C421.065,735.472 420.105,734.911 419.632,737.531C419.035,740.827 406.351,739.996 404.475,739.952C402.51,739.905 401.426,738.568 398.417,739.23C396.938,739.556 391.812,741.701 388.16,736.787C387.057,735.304 384.729,737.517 381.422,736.846C361.978,732.903 354.599,731.773 345.394,735.246C344.543,735.567 331.211,744.323 320.583,741.23C315.119,739.641 314.744,742.301 305.471,739.592C301.769,738.511 296.591,746.141 286.583,743.23C284.132,742.517 281.568,744.135 280.441,743.847C278.844,743.439 276.148,741.382 269.433,742.061C267.576,742.249 267.028,744.776 263.483,745.022C256.641,745.498 244.38,753.137 248.166,746.352C250.325,742.482 246.648,742.221 244.786,744.688C240.935,749.788 224.215,744.94 219.374,749.377C214.733,753.631 210.542,747.461 203.342,751.177C199.699,753.057 185.076,754.624 180.931,749.138C176.987,743.917 176.869,749.842 174.35,751.006C154.337,760.26 153.338,753.177 151.689,753.966C150.937,754.324 151.971,755.714 143.341,760.177C135.575,764.193 119.531,760.195 119.419,760.228C113.633,761.958 111.675,763.749 106.176,754.68C105.611,753.749 100.895,749.055 100.419,748.582C98.059,746.233 94.739,746.853 97.016,749.849C97.315,750.243 96.656,750.503 99.918,755.301C105.754,763.887 92.261,754.996 84.176,741.68C80.263,735.236 72.08,745.028 71.43,738.509C70.787,732.062 68.251,737.23 68.264,737.496C68.359,739.536 70.299,741.425 64.576,742.849C60.518,743.858 61.278,741.653 61.3,737.498C61.418,714.709 61.352,714.226 59.269,712.914C57.355,711.709 51.617,705.255 53.028,712.629C53.409,714.618 52.287,715.7 53.427,719.526C53.744,720.593 53.845,733.293 56.094,737.703C58.16,741.755 54.275,746.083 46.405,738.594C38.272,730.854 38.635,728.183 37.189,722.521C36.615,720.278 35.26,718.76 37.486,719.351C40.763,720.219 46.904,741.284 48.118,734.459C48.518,732.215 42.002,721.658 41.355,720.609C37.38,714.17 36.386,714.719 34.267,707.527C33.847,706.101 32.898,700.353 28.689,697.204C28.106,696.767 28.39,696.627 22.941,690.144C22.807,689.984 19.09,680.862 19.352,678.485C19.699,675.347 25.712,649.924 25.102,648.665C24.209,646.823 21.467,647.093 21.353,645.529C20.352,631.774 23.964,632.245 24.263,627.476C24.909,617.185 29.008,617.01 30.105,614.335C39.096,592.409 43.311,594.13 45.18,591.306C48.5,586.289 48.841,586.627 51.361,585.253C54.169,583.721 54.164,579.684 58.51,578.533C62.252,577.542 62.544,571.991 68.688,569.929C69.502,569.656 75.47,567.653 75.34,561.512C75.277,558.59 70.24,562.229 71.318,559.482C73.407,554.163 81.8,549.121 83.209,543.329C84.271,543.309 85.334,543.289 86.396,543.268C91.364,539.88 87.98,538.508 88.353,535.484C89.104,529.385 100.434,527.492 104.176,521.32C107.427,515.956 110.147,515.166 110.39,515.683C110.762,516.477 110.57,517.439 110.826,518.277C110.91,518.553 113.477,520.588 113.133,515.498C112.622,507.965 121.978,511.55 123.351,498.483C123.445,497.594 124.032,492.003 126.908,487.893C127.582,486.931 130.425,487.238 131.406,486.399C136.485,482.058 136.65,482.098 136.653,481.525C136.678,477.233 137.567,477.335 141.61,475.754C142.411,475.441 146.148,470.114 147.866,468.914C153.564,464.934 151.936,463.621 155.935,457.861C156.663,456.812 159.138,455.966 159.258,454.464C159.644,449.644 160.155,449.817 162.935,445.861C165.847,441.717 168.309,443.811 168.675,444.122C172.289,447.197 169.875,442.633 169.801,442.493C169.466,441.86 167.759,438.634 169.596,433.543C169.965,432.523 175.767,425.211 177.508,424.513C185.394,421.353 182.143,417.355 186.504,415.507C188.33,414.733 193.449,418.807 192.196,415.557C191.179,412.919 190.509,412.631 192.392,410.404C193.477,409.121 194.567,405.861 195.868,404.913C200.554,401.496 200.223,401.223 203.176,396.32C206.923,390.099 208.187,391.369 220.864,380.918C223.224,378.972 224.59,380.445 225.57,377.528C226.948,373.432 227.794,373.812 229.534,367.513C231.085,361.899 235.227,360.547 234.244,363.426C234.007,364.121 233.574,364.735 233.275,365.406C231.852,368.595 234.504,370.348 236.182,367.325C238.076,363.913 237.022,363.475 239.374,360.407C241.68,357.398 237.196,354.759 246.362,346.342C246.909,345.84 254.727,328.281 263.384,325.15C269.692,322.869 271.492,323.969 274.597,314.545C274.721,314.17 274.923,314.389 277.184,310.343C282.276,301.237 286.695,302.711 288.575,296.53C292.116,284.891 311.786,278.624 309.147,274.782C305.636,269.668 317.819,258.13 319.495,258.217C320.18,258.252 320.82,258.614 321.505,258.664C322.741,258.754 328.417,244.067 332.485,243.425C335.447,242.958 330.063,255.73 334.39,251.39C336.587,249.186 334.287,244.005 342.236,238.083C342.868,237.613 342.163,237.082 348.393,230.404C350.58,228.059 352.62,217.665 354.486,224.509C356.278,231.081 355.426,216.638 365.445,207.443C368.533,204.609 368.115,208.6 369.449,208.749C372.047,209.039 372.025,199.264 367.143,203.108C362.345,206.885 361.708,203.277 352.474,202.952C349.01,202.83 348.776,200.366 343.342,203.177C339.659,205.082 339.23,202.64 335.35,204.151C334.114,204.632 321.292,203.398 303.583,198.229C297.504,196.455 289.291,206.905 283.396,199.593C280.258,195.701 275.996,196.461 277.802,199.346C280.42,203.527 278.932,203.809 278.569,203.845C273.169,204.371 261.34,193.94 250.578,196.846C245.409,198.242 242.472,192.155 241.644,197.521C241.177,200.551 239.794,199.168 233.578,200.846C230.06,201.795 227.213,198.088 227.454,202.501C227.482,203.008 227.515,203.615 221.559,204.847C221.077,204.946 221.183,204.218 215.474,203.951C214.527,203.907 207.662,201.995 207.472,201.988C201.159,201.752 200.994,202.5 195.403,199.67C193.543,198.729 192.443,201.591 189.423,200.846C186.333,200.084 185.518,199.49 184.408,202.455C183.566,204.705 169.901,207.972 162.415,200.587C159.565,197.775 157.98,201.596 155.191,198.806C152.141,195.755 150.118,202.921 145.488,202.779C143.255,202.711 142.277,197.477 140.123,201.178C138.327,204.264 130.062,196.395 119.491,201.484C118.911,201.764 118.819,201.345 111.558,202.848C109.599,203.254 109.295,201.325 107.175,203.065C103.927,205.732 89.042,206.909 88.618,203.434C88.587,203.181 89.221,197.374 86.34,198.187C83.392,199.018 88.463,203.435 85.496,202.698C77.336,200.669 78.724,197.235 70.42,195.845C65.234,194.977 66.671,191.668 58.418,189.846C52.982,188.646 57.788,185.215 55.393,182.594C54.403,181.511 51.671,178.908 51.341,178.594L51.352,177.388C55.079,175.397 55.232,172.977 55.263,172.476C55.622,166.768 56.03,166.864 55.908,166.39C54.41,160.559 56.653,153.057 52.559,157.562C47,163.678 48.904,170.33 48.669,175.498C48.65,175.908 48.218,185.394 45.476,179.516C41.058,170.046 40.078,170.747 32.939,163.146C31.899,162.039 31.629,147.836 28.508,147.805C22.01,147.742 25.467,154.393 25.491,154.502C26.253,158.018 19.298,153.944 17.929,152.16C16.865,150.773 23.439,132.026 21.418,129.562C17.57,124.869 18.969,156.851 12.181,144.659C4.084,130.116 14.749,123.604 12.402,120.576C10.793,118.501 11.508,118.327 11.359,115.528C11.268,113.819 10.437,114.69 8.483,114.781C4.255,114.977 -0.355,94.896 3.944,88.844C7.543,83.777 10.425,73.377 24.392,58.404C27.432,55.145 24.983,52.515 30.902,40.708C35.791,30.953 45.66,29.806 49.526,26.535C52.689,23.859 54.141,27.39 55.773,25.816C57.474,24.175 50.047,19.061 64.573,11.705C71.642,8.125 65.661,17.215 68.637,18.137C71.979,19.172 70.026,13.559 74.581,9.695C75.256,9.832 75.931,9.969 76.606,10.106C77.296,10.26 77.98,9.774 82.589,12.329C84.683,13.49 83.693,14.218 84.934,16.208C86.054,18.006 90.175,15.643 90.452,15.431C91.595,14.554 99.903,13.049 101.367,12.255C109.254,7.973 105.951,22.336 109.153,19.001C111.143,16.93 110.553,16.552 112.394,14.407C114.837,11.562 110.497,7.039 113.457,5.443C115.258,4.471 117.094,5.988 117.558,6.037C125.313,6.85 119.693,16.323 121.591,18.423C124.89,22.073 122.469,10.195 126.584,6.695C128.593,6.833 130.602,6.971 132.611,7.109C135.457,7.737 135.31,8.014 135.556,8.038C145.461,9.013 145.011,18.413 147.46,18.71C152.734,19.352 140.098,8.743 148.498,8.525C150.969,8.853 150.914,8.923 153.432,8.713C158.797,10.012 159.869,13.397 163.562,12.718C165.153,12.797 166.463,13.792 172.432,12.713C172.937,12.835 172.852,12.824 173.325,12.929C173.475,12.962 173.425,13.267 173.569,13.32C175.039,13.867 181.062,15.197 182.723,18.372C187.37,27.255 183.03,5.822 189.586,3.724ZM43.395,141.416C42.637,142.489 40.375,150.239 38.731,142.476C37.916,138.63 38.23,131.354 34.822,124.345C31.181,116.857 30.013,102.238 25.791,98.179C23.964,96.421 26.822,89.947 30.179,96.657C44.083,124.443 42.905,127.224 42.073,129.369C39.509,135.979 42.16,135.915 42.552,135.604C42.565,135.593 44.597,129.411 45.449,132.528C46.081,134.838 43.671,140.74 43.395,141.416ZM29.697,681.5C28.164,667.672 27.369,667.741 27.874,666.657C29.758,662.61 31.517,667.833 33.114,672.638C35.181,678.851 34.876,681.912 36.114,685.638C39.885,696.981 37.47,702.455 33.701,698.303C33.627,698.222 29.995,685.878 29.697,681.5ZM668.5,168.037C666.081,166.791 666.658,166.276 666.601,163.5C666.375,152.427 663.969,149.802 663.691,145.481C663.623,144.433 663.182,137.576 661.267,132.579C659.763,128.651 662.198,129.643 662.415,129.754C664.309,130.716 666.301,139.428 666.313,139.519C667.871,151.531 668.96,151.355 669.447,163.506C669.554,166.175 670.847,166.86 668.5,168.037ZM21.594,74.577C25.169,68.641 24.145,67.439 26.06,64.176C28.217,60.501 27.913,60.439 29.296,56.439C29.412,56.106 33.718,43.663 32.606,53.528C32.507,54.406 31.966,54.099 31.825,54.931C30.289,64.018 19.866,88.551 18.528,88.677C13.696,89.135 21.043,75.592 21.594,74.577ZM197.525,7.986C203.83,9.054 200.255,11.891 199.28,19.472C198.927,22.217 191.71,24.442 191.519,24.424C190.961,24.369 190.261,24.041 192.427,17.473C193.775,13.387 193.278,9.525 197.525,7.986ZM750.272,659.91C750.977,660.505 760.82,668.815 756.536,669.594C754.899,669.892 754.746,668.452 752.115,665.901C751.174,664.988 746.748,663.285 744.593,657.476C742.863,652.811 747.561,657.881 750.272,659.91ZM539.506,12.988C540.014,13.175 545.371,15.15 542.976,18.799C541.622,20.864 544.683,21.744 543.912,23.722C543.734,24.18 541.361,26.665 539.396,19.542C538.573,16.557 535.435,15.03 539.506,12.988ZM47.297,49.5C47.318,48.933 47.532,43.181 48.504,42.509C50.626,41.041 50.399,60.709 47.496,58.506C47.3,58.357 47.297,50.221 47.297,49.5ZM510.499,331.499C510.277,331.729 505.968,336.202 506.633,332.523C507.007,330.46 516.187,322.204 515.38,326.472C515.227,327.282 515.011,327.169 510.499,331.499ZM468.507,360.025C462.437,357.16 471.905,356.588 472.334,356.276C473.964,355.093 474.725,354.624 475.173,356.6C475.704,358.942 470.509,359.5 468.507,360.025ZM12.687,93.604C12.852,93.329 14.778,90.108 15.396,90.649C15.602,90.829 15.617,93.612 15.265,94.421C15.179,94.619 10.412,100.73 12.687,93.604ZM490.5,353.955C495.363,356.309 488.149,358.905 487.899,357.376C487.575,355.397 490.192,354.107 490.5,353.955ZM502.5,730.963C507.415,733.483 502.816,735.243 501.626,734.345C499.669,732.869 500.24,732.093 502.5,730.963ZM48.479,665.117C41.299,663.985 48.286,662.194 48.518,662.204C51.162,662.32 50.983,664.232 48.479,665.117ZM387.1,548.155C389.154,548.54 389.295,548.561 390.079,550.561C390.864,552.561 385.431,553.229 387.1,548.155ZM54.499,691.95C57.985,692.966 56.479,694.075 56.285,694.198C54.978,695.028 52.961,694.862 52.579,694.418C51.156,692.759 52.434,692.638 54.499,691.95ZM724.585,678.491C724.582,678.26 724.549,675.748 725.473,675.747C726.461,675.746 727.152,677.419 727.23,677.608C727.494,678.245 726.72,683.408 724.585,678.491ZM19.611,110.512C20.563,108.249 22.194,108.073 22.389,110.512C22.528,112.254 20.121,114.498 19.611,110.512ZM41.108,86.611C40.466,88.967 39.258,87.847 38.267,85.574C37.162,83.038 39.801,83.361 40.298,84.602C40.482,85.061 40.283,85.056 40.473,85.527C40.725,86.152 40.862,85.999 41.108,86.611ZM56.52,677.48C58.164,681.018 55.843,680.21 55.642,680.116C54.832,679.741 50.999,675.406 56.52,677.48ZM734.703,687.472C733.842,693.334 732.277,687.663 732.302,687.473C732.543,685.595 733.485,686.012 734.703,687.472ZM49.163,75.467C47.336,79.976 46.111,73.602 47.343,73.284C49.166,72.813 49.003,73.619 49.163,75.467ZM175.501,201.455C172.145,200.793 174.376,199.628 174.54,199.593C174.704,199.557 182.319,199.883 175.501,201.455ZM430.553,558.582C430.154,558.543 429.791,558.937 429.393,558.898C426.905,558.653 430.875,553.668 431.406,556.538C431.623,557.713 431.312,557.571 430.553,558.582ZM308.287,195.478C309.295,194.266 309.481,193.366 310.439,194.546C310.888,195.099 309.988,200.71 308.287,195.478ZM689.5,734.5C694.143,735.495 689.66,736.498 689.5,736.498C689.34,736.497 684.894,735.493 689.5,734.5ZM337.044,541.5L336.648,542.783C331.095,541.177 337.091,539.926 337.538,540.244C337.903,540.506 336.678,541.239 337.044,541.5ZM172.558,22.805C173.871,23.188 173.799,23.105 173.871,23.188C175.636,25.235 170.132,25.89 171.586,23.544C171.8,23.198 172.344,23.151 172.558,22.805ZM65.175,98.5C63.507,102.624 62.237,97.542 63.324,97.266C65.143,96.803 65.117,98.359 65.175,98.5ZM597.5,546.792C601.008,548.815 596.945,549.416 596.4,548.56C595.693,547.45 596.302,547.483 597.5,546.792ZM288.514,304.511C284.778,305.822 287.283,303.136 287.415,303.077C288.536,302.576 288.372,303.283 288.514,304.511ZM42.113,95.377C38.56,97.134 40.079,94.332 40.205,94.205C41.361,93.05 41.684,93.8 42.113,95.377ZM460.113,370.377C456.56,372.134 458.079,369.332 458.205,369.205C459.361,368.05 459.684,368.8 460.113,370.377ZM361.505,489.35C360.527,488.591 359.96,488.579 360.658,487.629C361.001,487.161 365.074,487.255 361.505,489.35ZM472.506,13.672C476.078,15.709 472.584,15.846 472.412,15.826C470.743,15.634 471.123,14.716 472.506,13.672ZM499.5,345.5C498.387,344.574 498.297,344.625 498.297,344.5C498.297,343.513 501.738,343.639 499.5,345.5ZM448.469,551.419C447.176,550.696 446.183,550.335 447.531,549.581C447.962,549.34 449.174,550.048 449.174,550.5C449.174,550.886 448.469,551.033 448.469,551.419ZM493.532,552.414C493.551,552.008 492.765,551.859 492.784,551.453C492.796,551.187 494.198,550.42 494.459,550.553C495.886,551.283 494.857,551.672 493.532,552.414Z"/>

    </g>
</svg>
